<svg xmlns="http://www.w3.org/2000/svg" viewBox="0 0 114.37 166.92"><defs><style>.cls-1{isolation:isolate;}.cls-2{fill:#ffd032;}.cls-3,.cls-4{fill:#feea46;}.cls-3{opacity:0.65;}.cls-4{opacity:0.3;mix-blend-mode:overlay;}</style></defs><title>crystal-y</title><g class="cls-1"><g id="Layer_4" data-name="Layer 4"><path class="cls-2" d="M468.37,629.63V738.5a10.32,10.32,0,0,1-3,7.32l-18.67,18.67a10.34,10.34,0,0,1-7.33,3h-56a10.44,10.44,0,0,1-7.72-3.46l-19-21.42a10.25,10.25,0,0,1-2.63-6.87V629.63a10.34,10.34,0,0,1,3-7.33l18.67-18.67a10.36,10.36,0,0,1,7.32-3h56.32a10.39,10.39,0,0,1,7.33,3l18.67,18.67A10.34,10.34,0,0,1,468.37,629.63Z" transform="translate(-354 -600.6)"/><path class="cls-3" d="M412.73,600.6V767.52H383.36a10.44,10.44,0,0,1-7.72-3.46l-19-21.42a10.25,10.25,0,0,1-2.63-6.87V629.63a10.34,10.34,0,0,1,3-7.33l18.67-18.67a10.36,10.36,0,0,1,7.32-3Z" transform="translate(-354 -600.6)"/><path class="cls-4" d="M468.37,629.63v54.43H354V629.63a10.34,10.34,0,0,1,3-7.33l18.67-18.67a10.36,10.36,0,0,1,7.32-3h56.32a10.39,10.39,0,0,1,7.33,3l18.67,18.67A10.34,10.34,0,0,1,468.37,629.63Z" transform="translate(-354 -600.6)"/></g></g></svg>