<svg xmlns="http://www.w3.org/2000/svg" viewBox="0 0 139.1 139.1"><defs><style>.cls-1{isolation:isolate;}.cls-2{fill:#ff4178;}.cls-3,.cls-4{fill:#ff82f0;opacity:0.5;}.cls-4{mix-blend-mode:overlay;}</style></defs><title>crystal-r</title><g class="cls-1"><g id="Layer_6" data-name="Layer 6"><path class="cls-2" d="M816.93,673.54v49a10.3,10.3,0,0,1-3,7.32l-34.68,34.68a10.33,10.33,0,0,1-7.33,3h-49a10.34,10.34,0,0,1-7.33-3l-34.68-34.68a10.35,10.35,0,0,1-3-7.32v-49a10.35,10.35,0,0,1,3-7.32l34.68-34.68a10.34,10.34,0,0,1,7.33-3h49a10.33,10.33,0,0,1,7.33,3l34.68,34.68A10.3,10.3,0,0,1,816.93,673.54Z" transform="translate(-677.83 -628.51)"/><path class="cls-3" d="M748.93,628.51V767.6H722.87a10.34,10.34,0,0,1-7.33-3l-34.68-34.68a10.35,10.35,0,0,1-3-7.32v-49a10.35,10.35,0,0,1,3-7.32l34.68-34.68a10.34,10.34,0,0,1,7.33-3Z" transform="translate(-677.83 -628.51)"/><path class="cls-4" d="M816.93,673.54v23H677.83v-23a10.35,10.35,0,0,1,3-7.32l34.68-34.68a10.34,10.34,0,0,1,7.33-3h49a10.33,10.33,0,0,1,7.33,3l34.68,34.68A10.3,10.3,0,0,1,816.93,673.54Z" transform="translate(-677.83 -628.51)"/></g></g></svg>