<svg xmlns="http://www.w3.org/2000/svg" viewBox="0 0 118.88 158.2"><defs><style>.cls-1{isolation:isolate;}.cls-2{fill:#419bff;}.cls-3,.cls-4{fill:#00f6f4;}.cls-3{opacity:0.75;}.cls-4{opacity:0.5;mix-blend-mode:overlay;}</style></defs><title>crystal-b</title><g class="cls-1"><g id="Layer_5" data-name="Layer 5"><path class="cls-2" d="M627.63,688.51a10.64,10.64,0,0,1-1.91,6L576.6,763.28a10.33,10.33,0,0,1-16.82,0l-49.11-68.74a10.43,10.43,0,0,1,0-12.06l49.11-68.74a10.33,10.33,0,0,1,16.82,0l49.12,68.74A10.64,10.64,0,0,1,627.63,688.51Z" transform="translate(-508.75 -609.41)"/><path class="cls-3" d="M568.19,609.41v158.2a10.25,10.25,0,0,1-8.41-4.33l-49.11-68.74a10.43,10.43,0,0,1,0-12.06l49.11-68.74A10.25,10.25,0,0,1,568.19,609.41Z" transform="translate(-508.75 -609.41)"/><path class="cls-4" d="M627.63,688.51H508.75a10.57,10.57,0,0,1,1.92-6l49.11-68.74a10.33,10.33,0,0,1,16.82,0l49.12,68.74A10.64,10.64,0,0,1,627.63,688.51Z" transform="translate(-508.75 -609.41)"/></g></g></svg>