<svg xmlns="http://www.w3.org/2000/svg" viewBox="0 0 148.68 120.6"><defs><style>.cls-1{isolation:isolate;}.cls-2{fill:#00c6b3;}.cls-3,.cls-4{fill:#00ea84;}.cls-3{opacity:0.75;}.cls-4{opacity:0.5;mix-blend-mode:overlay;}</style></defs><title>crystal-g</title><g class="cls-1"><g id="Layer_7" data-name="Layer 7"><path class="cls-2" d="M1010.88,679.24a9.83,9.83,0,0,1-2.17,4.92l-64,79.38a10.26,10.26,0,0,1-6.52,3.74,10.43,10.43,0,0,1-9.62-3.74l-64-79.38a9.73,9.73,0,0,1-2.16-4.92,10.25,10.25,0,0,1,2.13-8L881,650.68a10.36,10.36,0,0,1,8.1-3.89h95.14a10.35,10.35,0,0,1,8.1,3.89l16.41,20.53A10.3,10.3,0,0,1,1010.88,679.24Z" transform="translate(-862.32 -646.79)"/><path class="cls-3" d="M938.21,646.79V767.28a10.43,10.43,0,0,1-9.62-3.74l-64-79.38a9.73,9.73,0,0,1-2.16-4.92,10.25,10.25,0,0,1,2.13-8L881,650.68a10.36,10.36,0,0,1,8.1-3.89Z" transform="translate(-862.32 -646.79)"/><path class="cls-4" d="M1010.88,679.24H862.45a10.25,10.25,0,0,1,2.13-8L881,650.68a10.36,10.36,0,0,1,8.1-3.89h95.14a10.35,10.35,0,0,1,8.1,3.89l16.41,20.53A10.3,10.3,0,0,1,1010.88,679.24Z" transform="translate(-862.32 -646.79)"/></g></g></svg>